<svg width="382" height="90" viewBox="0 0 382 90" fill="none" xmlns="http://www.w3.org/2000/svg">
<g clip-path="url(#clip0_2946_9599)">
<path d="M55.9236 45.4707L56.772 46.7881L58.5255 45.4331L54.6226 39.7681L52.8125 40.615L52.8314 40.6338L55.9236 45.4707Z" fill="#392C29"/>
<path d="M52.6427 36.3991C52.5958 36.1947 52.5958 35.9824 52.6427 35.778C52.73 35.5134 52.8752 35.2715 53.0676 35.0698C53.2599 34.868 53.4948 34.7113 53.7552 34.6111L64.7098 30.6588L66.5953 27.3464L61.6176 24.5233C61.4541 24.432 61.333 24.2804 61.2801 24.1009C61.2272 23.9215 61.2469 23.7286 61.3348 23.5635C61.433 23.4021 61.5896 23.2847 61.7722 23.2357C61.9548 23.1866 62.1492 23.2097 62.3152 23.3L71.1205 28.3062L74.6464 27.0453C74.8216 26.9837 75.0138 26.9925 75.1827 27.0697C75.3515 27.147 75.4837 27.2867 75.5514 27.4593C75.584 27.547 75.5986 27.6402 75.5944 27.7336C75.5901 27.827 75.5671 27.9185 75.5266 28.0028C75.4861 28.0871 75.4291 28.1625 75.3588 28.2243C75.2886 28.2861 75.2066 28.3332 75.1177 28.3627L63.4654 32.5785L54.1511 35.9474C54.0888 35.9662 54.0321 36.0002 53.9861 36.0462C53.94 36.0921 53.906 36.1487 53.8871 36.2109C53.8616 36.2671 53.8484 36.328 53.8484 36.3897C53.8484 36.4514 53.8616 36.5123 53.8871 36.5685L55.6407 39.1093L59.4116 44.6237L62.9186 49.6676C62.9457 49.7123 62.9814 49.7512 63.0236 49.782C63.0658 49.8128 63.1136 49.835 63.1645 49.8472C63.2153 49.8595 63.2681 49.8616 63.3197 49.8533C63.3714 49.8451 63.4209 49.8268 63.4654 49.7993L89.6548 33.4066C89.9692 33.2212 90.2055 32.9283 90.3199 32.5822C90.4344 32.2361 90.4191 31.8603 90.2771 31.5246L85.5256 18.8395L64.8041 0.451792C64.6657 0.312945 64.5012 0.20275 64.32 0.127567C64.1388 0.0523847 63.9445 0.0136719 63.7482 0.0136719C63.552 0.0136719 63.3577 0.0523847 63.1765 0.127567C62.9953 0.20275 62.8308 0.312945 62.6924 0.451792L39.7083 24.2222L35.2773 28.7956L52.6427 36.3991Z" fill="#392C29"/>
<path d="M82.4336 64.8932C82.5048 64.6399 82.5074 64.3723 82.4411 64.1177C82.3749 63.8631 82.2421 63.6307 82.0565 63.444L67.8587 48.8392L64.4649 50.966C64.1757 51.1449 63.8434 51.2425 63.5033 51.2483C63.2073 51.2439 62.9166 51.1701 62.6545 51.0328C62.3925 50.8955 62.1665 50.6985 61.9949 50.4578L59.3552 46.6937L57.4697 48.0864L58.601 49.9685C58.7014 50.1263 58.736 50.3171 58.6972 50.5C58.6585 50.683 58.5495 50.8434 58.3936 50.9471C58.2818 51.0211 58.1506 51.0605 58.0165 51.0601C57.8947 51.0629 57.7745 51.0329 57.6683 50.9733C57.5621 50.9137 57.474 50.8266 57.4132 50.7213L55.0186 46.9572L50.3048 39.5795C50.1373 39.6861 49.9357 39.7259 49.7401 39.691C49.5446 39.6562 49.3692 39.5492 49.249 39.3913C49.1188 39.2578 49.046 39.0788 49.046 38.8926C49.046 38.7063 49.1188 38.5274 49.249 38.3938C49.4193 38.273 49.6122 38.1874 49.8162 38.1422C50.0202 38.0969 50.2312 38.0928 50.4368 38.1303C50.8372 38.2254 51.1872 38.4673 51.4173 38.8079L51.9075 39.5607L53.6044 38.7702L53.4724 38.5821L47.0052 35.759L34.0896 30.1128L11.0867 53.9396C10.9191 54.1149 10.7956 54.3276 10.7268 54.56C10.6579 54.7923 10.6456 55.0378 10.6907 55.2759C10.7283 55.5143 10.8235 55.74 10.9681 55.9334C11.1126 56.1269 11.3021 56.2823 11.5203 56.3863L39.7084 69.8995C40.0574 70.0622 40.4543 70.0908 40.823 69.9796C41.1918 69.8685 41.5065 69.6255 41.707 69.2972L46.9675 60.508L40.1987 46.562C40.1572 46.4768 40.133 46.3843 40.1276 46.2897C40.1223 46.1952 40.1358 46.1006 40.1673 46.0113C40.1989 45.922 40.248 45.8398 40.3116 45.7696C40.3752 45.6993 40.4522 45.6424 40.538 45.6021C40.7013 45.5362 40.8838 45.5362 41.0471 45.6021C41.1899 45.6723 41.3082 45.7838 41.3865 45.9221L47.7406 59.0965L54.2644 72.5908C54.4151 72.9428 54.6915 73.2264 55.04 73.3864C55.3884 73.5464 55.784 73.5714 56.1499 73.4566L81.3965 66.0224C81.6538 65.9423 81.8854 65.7956 82.0675 65.5973C82.2496 65.399 82.3759 65.156 82.4336 64.8932Z" fill="#392C29"/>
<path d="M90.6164 74.4356C89.0284 72.752 87.1004 71.4241 84.96 70.5397C84.7854 70.4601 84.5957 70.4189 84.4037 70.4189C84.2118 70.4189 84.0221 70.4601 83.8475 70.5397L73.4397 74.7744L72.5912 75.1132L71.4033 75.6025C71.1021 75.7148 70.849 75.9276 70.6868 76.2047L69.103 78.9149C69.0694 78.9852 69.0221 79.048 68.9638 79.0997C68.9055 79.1515 68.8375 79.191 68.7636 79.216C66.3225 80.7296 64.053 82.5028 61.9947 84.5046C61.9475 84.5547 61.8895 84.5933 61.825 84.6175C61.825 84.6175 58.6386 86.2173 58.9779 88.551C59.1665 89.812 63.1826 90.1696 66.0674 89.9626C73.5151 86.8948 87.9391 80.8346 89.8057 79.5736C91.069 78.7267 91.6912 77.9927 91.8232 77.2587C91.8219 76.7314 91.7144 76.2098 91.5071 75.7248C91.2998 75.2398 90.9969 74.8014 90.6164 74.4356Z" fill="#392C29"/>
<path d="M20.2881 65.4204L28.3203 69.6551L29.7155 66.5873L22.0982 62.8608L20.2881 65.4204Z" fill="#392C29"/>
<path d="M28.7725 71.4992H28.6028L17.2898 65.5519C16.9933 65.3985 16.649 65.3648 16.3283 65.4578L13.5 66.3047C13.4136 66.3414 13.3206 66.3604 13.2266 66.3604C13.1327 66.3604 13.0397 66.3414 12.9532 66.3047C10.2583 65.1431 7.34707 64.5658 4.41198 64.6108C2.3568 64.6108 0.641022 64.9308 0.13194 65.6648C-0.377142 66.3988 0.377039 67.3022 1.88543 68.6385C9.33311 75.2069 21.9847 79.9308 24.7187 80.6648C25.149 80.8429 25.6103 80.9346 26.0762 80.9346C26.5421 80.9346 27.0034 80.8429 27.4338 80.6648C28.1437 80.0675 28.5905 79.216 28.6782 78.2934C29.0516 76.5019 29.3348 74.6929 29.5267 72.8731C29.568 72.5934 29.5167 72.3078 29.3805 72.0598C29.2444 71.8118 29.0309 71.615 28.7725 71.4992Z" fill="#392C29"/>
<path d="M71.9127 73.7957L80.8122 70.1821L79.2473 68.0742L70.5552 70.6526L71.9127 73.7957Z" fill="#392C29"/>
<path d="M315.348 31.6751L314.462 32.7479C313.84 32.1458 313.009 31.8083 312.143 31.8069C310.37 31.8069 308.937 33.162 308.937 37.1896C308.937 41.2172 310.333 42.5723 312.143 42.5723C313.066 42.5511 313.944 42.1733 314.594 41.5183L315.48 42.5911C315.045 43.0592 314.516 43.4316 313.929 43.6843C313.341 43.9371 312.707 44.0648 312.067 44.0591C309.183 44.0591 307.071 41.8006 307.071 37.1896C307.071 32.5785 309.296 30.3765 312.067 30.3765C312.673 30.3636 313.276 30.4719 313.839 30.6949C314.403 30.918 314.916 31.2512 315.348 31.6751Z" fill="#392C29"/>
<path d="M321.061 30.1131C321.067 30.2612 321.041 30.4088 320.986 30.5463C320.93 30.6839 320.846 30.8082 320.74 30.9112C320.633 31.0142 320.506 31.0936 320.366 31.1442C320.226 31.1947 320.078 31.2154 319.93 31.2047C319.782 31.2125 319.635 31.1898 319.496 31.1382C319.358 31.0866 319.232 31.0072 319.126 30.9047C319.02 30.8023 318.936 30.6791 318.88 30.543C318.823 30.4068 318.796 30.2604 318.798 30.1131C318.79 29.9618 318.814 29.8106 318.868 29.6689C318.922 29.5273 319.004 29.3984 319.111 29.2904C319.217 29.1825 319.345 29.0978 319.486 29.0417C319.627 28.9857 319.778 28.9596 319.93 28.965C320.082 28.9566 320.234 28.9807 320.377 29.0357C320.519 29.0906 320.648 29.1753 320.755 29.2839C320.862 29.3925 320.945 29.5226 320.998 29.6656C321.05 29.8086 321.072 29.9611 321.061 30.1131ZM320.797 43.8145H319.062V33.7078H320.797V43.8145Z" fill="#392C29"/>
<path d="M330.375 43.3625C329.774 43.8195 329.038 44.0644 328.283 44.0589C327.929 44.0847 327.575 44.0313 327.245 43.9026C326.915 43.774 326.618 43.5733 326.376 43.3153C326.133 43.0572 325.952 42.7485 325.845 42.4114C325.738 42.0744 325.707 41.7177 325.756 41.3675V35.025H324.304V33.7076H325.756V31.4114L327.453 31.1855V33.7076H329.64L329.47 35.025H327.453V41.3487C327.453 42.1768 327.792 42.6285 328.547 42.6285C328.975 42.6299 329.395 42.5056 329.753 42.2709L330.375 43.3625Z" fill="#392C29"/>
<path d="M337.427 43.8518C337.251 44.8953 336.737 45.8525 335.964 46.5766C335.191 47.3007 334.202 47.7517 333.147 47.8606L332.959 46.5808C333.679 46.4944 334.352 46.1786 334.879 45.6803C335.405 45.182 335.757 44.5276 335.881 43.8142H335.24L332.28 33.7075H334.033L336.371 42.6096L338.709 33.7075H340.444L337.427 43.8518Z" fill="#392C29"/>
<path d="M314.16 65.1002L311.332 59.454H309.446V65.1002H307.674V51.9258H310.747C313.934 51.9258 315.423 53.262 315.423 55.6899C315.479 56.4754 315.262 57.256 314.809 57.9005C314.355 58.5449 313.693 59.0138 312.934 59.2282L316.102 65.1755L314.16 65.1002ZM313.651 55.6899C313.651 54.109 312.84 53.3561 310.766 53.3561H309.503V58.193H310.936C312.746 58.1177 313.651 57.3837 313.651 55.6146V55.6899Z" fill="#392C29"/>
<path d="M326.585 64.1593L326.227 65.3262C325.806 65.3094 325.402 65.1519 325.08 64.8789C324.759 64.6059 324.539 64.2333 324.455 63.8206C324.187 64.2957 323.794 64.6888 323.319 64.9575C322.844 65.2261 322.304 65.3602 321.759 65.345C321.357 65.3666 320.955 65.3006 320.581 65.1517C320.208 65.0027 319.871 64.7743 319.595 64.4824C319.319 64.1904 319.109 63.842 318.981 63.4612C318.854 63.0804 318.81 62.6764 318.855 62.2773C318.855 60.1317 320.307 58.9648 322.89 58.9648H324.191V58.1179C324.191 56.7064 323.644 56.1418 322.305 56.1418C321.462 56.158 320.63 56.337 319.854 56.6687L319.458 55.4642C320.437 55.0235 321.496 54.7865 322.569 54.7678C323.015 54.7076 323.469 54.7518 323.895 54.8966C324.321 55.0414 324.707 55.283 325.023 55.6024C325.34 55.9218 325.577 56.3102 325.717 56.737C325.858 57.1637 325.897 57.6171 325.831 58.0614V62.7854C325.888 63.67 326.133 63.9523 326.585 64.1593ZM324.191 62.4655V60.0941H323.116C321.457 60.0941 320.608 60.7904 320.608 62.1831C320.608 63.5759 321.193 64.0652 322.136 64.0652C323.078 64.0652 323.701 63.5006 324.191 62.5596V62.4655Z" fill="#392C29"/>
<path d="M342.348 57.7604V65.1004H340.67V57.9674C340.67 56.6123 340.199 56.0854 339.463 56.0854C338.728 56.0854 337.974 56.8005 337.37 57.8545V65.0816H335.73V57.9486C335.73 56.5935 335.259 56.0665 334.542 56.0665C333.826 56.0665 333.015 56.7817 332.449 57.8357V65.0628H330.733V55.0314H332.242L332.374 56.537C332.627 56.0417 333.005 55.6211 333.472 55.3173C333.938 55.0135 334.476 54.8371 335.032 54.8056C335.567 54.81 336.084 55.0003 336.493 55.3437C336.903 55.6872 337.18 56.1625 337.276 56.6876C337.518 56.1597 337.898 55.7065 338.375 55.3754C338.853 55.0443 339.411 54.8475 339.991 54.8056C341.386 54.7679 342.348 55.9348 342.348 57.7604Z" fill="#392C29"/>
<path d="M354.679 60.0378C354.679 63.3314 353.359 65.3452 351.191 65.3452C350.694 65.3415 350.206 65.2138 349.772 64.9738C349.337 64.7339 348.969 64.3893 348.702 63.9713L348.589 65.1005H347.043V50.9474L348.778 50.7593V56.2549C349.038 55.8051 349.411 55.4312 349.861 55.1704C350.311 54.9095 350.822 54.7708 351.342 54.768C353.454 54.768 354.679 56.5372 354.679 60.0378ZM352.907 60.0378C352.907 57.0642 352.134 56.1419 350.927 56.1419C350.466 56.1849 350.025 56.3508 349.65 56.6223C349.275 56.8938 348.98 57.261 348.796 57.6852V62.6538C348.984 63.0254 349.265 63.3422 349.612 63.573C349.959 63.8039 350.36 63.9411 350.776 63.9713C352.058 63.9713 352.907 62.8985 352.907 60.0378Z" fill="#392C29"/>
<path d="M358.827 63.2371V50.9285L360.543 50.7402V63.1806C360.543 63.6511 360.751 63.9146 361.165 63.9146C361.346 63.9176 361.525 63.8857 361.693 63.8206L362.108 65.025C361.698 65.2305 361.247 65.3399 360.788 65.345C360.514 65.358 360.241 65.3111 359.986 65.2076C359.732 65.1041 359.504 64.9464 359.317 64.7457C359.131 64.545 358.99 64.306 358.905 64.0454C358.821 63.7849 358.794 63.509 358.827 63.2371Z" fill="#392C29"/>
<path d="M372.855 60.6777H367.01C367.161 63.162 368.085 64.0089 369.443 64.0089C370.313 64.0085 371.153 63.6867 371.8 63.1055L372.554 64.1218C371.693 64.9458 370.541 65.3988 369.348 65.3828C366.765 65.3828 365.257 63.5007 365.257 60.1883C365.257 56.8759 366.69 54.8057 369.141 54.8057C371.592 54.8057 372.912 56.5748 372.912 59.7931C372.893 60.0754 372.874 60.3954 372.855 60.6777ZM371.215 59.285C371.215 57.1959 370.555 56.1231 369.141 56.1231C367.727 56.1231 367.142 57.0077 367.01 59.4543H371.215V59.285Z" fill="#392C29"/>
<path d="M382 54.8995L381.698 56.5558C381.445 56.4931 381.186 56.4616 380.925 56.4617C379.756 56.4617 379.04 57.4215 378.738 59.2848V65.1003H377.003V55.0313H378.512L378.644 57.0451C379.153 55.5771 379.964 54.8243 381.133 54.8243C381.424 54.8087 381.716 54.834 382 54.8995Z" fill="#392C29"/>
<path d="M145.522 60.8845C148.067 56.5487 149.475 51.6418 149.614 46.6185V46.3738H145.296V46.6185C145.254 49.1863 144.789 51.7296 143.919 54.1467C143.486 49.7992 143.222 44.2848 143.071 40.2195H148.727V35.9849H142.977C142.977 33.3876 142.864 30.8468 142.826 28.6072V28.3813H138.584V28.626C138.584 29.1718 138.584 32.0702 138.734 35.9472H132.286L128.685 39.3726L128.044 39.9937V47.2584C128.044 47.9547 128.044 48.6511 128.044 49.3475C128.044 50.7967 128.044 52.1518 127.931 53.4128C127.817 54.3538 127.648 55.4077 127.421 56.5746L125.951 54.8431L125.762 54.9748L125.197 55.3889V43.3625H127.252V39.1279H125.197V29.0965H120.954V39.1279H118.069V43.3625H120.954V57.2709C119.416 57.7122 117.822 57.934 116.222 57.9297H115.977V62.1643H116.222C119.909 62.1862 123.538 61.2385 126.743 59.4165C126.226 61.2149 125.512 62.9507 124.612 64.5921L124.499 64.7992L128.119 66.9824L128.232 66.7942C129.442 64.8186 130.368 62.6837 130.985 60.4516C131.652 58.2953 132.088 56.0746 132.286 53.8267C132.406 52.3243 132.444 50.8164 132.399 49.3098C132.399 48.7452 132.399 48.1994 132.399 47.6348H133.078L133.776 48.35V57.6662C133.8 57.9542 133.8 58.2438 133.776 58.5319C133.182 58.8166 132.544 59.0011 131.89 59.0777H131.645L132.361 63.2559H132.588C137.188 62.4842 138.112 60.5457 138.112 57.6097V46.5244L134.926 43.3437H132.456V41.8569L134.134 40.2383H139.017C139.134 47.0327 139.764 53.8085 140.903 60.5081C140.383 61.356 139.68 62.077 138.845 62.6176C138.01 63.1583 137.063 63.5051 136.076 63.6323H135.831V67.8669H135.868C137.228 67.8138 138.562 67.4765 139.783 66.8767C141.004 66.277 142.086 65.4282 142.958 64.3851C145.388 66.2685 148.349 67.3417 151.424 67.4529H151.65V63.2183H151.424C149.258 63.0867 147.191 62.2691 145.522 60.8845Z" fill="#392C29"/>
<path d="M148.256 34.4792C148.409 34.0712 148.592 33.6749 148.803 33.2935C149.401 32.3314 149.763 31.2414 149.859 30.1128V29.8682H145.635V30.0752C145.483 30.532 145.287 30.9731 145.051 31.3926C144.481 32.3092 144.139 33.3478 144.051 34.4227V34.6674H148.256V34.4792Z" fill="#392C29"/>
<path d="M194.677 48.4255L190.227 43.9839H183.986V39.0152H194.318V34.216H183.967V28.3628H179.159V34.216H169.128V39.0152H179.159V43.9839H173.22L168.77 48.4068V58.7957C168.77 58.944 168.724 59.0887 168.638 59.2097C168.343 59.3842 167.998 59.4569 167.658 59.4167H167.413V64.216H167.658C168.493 64.2599 169.328 64.1266 170.108 63.8249C170.888 63.5233 171.595 63.06 172.183 62.4657C173.113 61.4366 173.607 60.087 173.559 58.7016V50.4205L175.256 48.7267H179.216V67.7355H184.024V48.7267H188.266L189.963 50.4205V57.7794C190.014 58.0846 190.014 58.3963 189.963 58.7016C189.963 58.7016 189.774 58.8145 189.19 58.8333H186.626L186.739 63.6326H189.265C190.023 63.6619 190.78 63.5387 191.489 63.2703C192.198 63.002 192.846 62.5939 193.395 62.0705C193.931 61.4442 194.334 60.7162 194.58 59.9302C194.826 59.1441 194.911 58.3165 194.828 57.4971L194.677 48.4255Z" fill="#392C29"/>
<path d="M215.945 35.3263L216.133 35.5333C217.076 36.5873 218.019 37.5847 218.698 38.2999L218.867 38.4693L221.828 35.4392L221.658 35.2887C221.036 34.6676 220.244 33.7642 219.301 32.729L217.415 30.5458L217.265 30.3765L214.135 33.2372L214.286 33.4254C214.832 34.0653 215.398 34.7052 215.945 35.3263Z" fill="#392C29"/>
<path d="M214.535 40.6947L211.534 43.6875L216.997 49.1467L219.998 46.1539L214.535 40.6947Z" fill="#392C29"/>
<path d="M214.927 52.7163C214.927 56.3675 211.156 61.1667 210.081 61.2985V61.5244H209.874V65.5143H210.1C214.304 65.5143 219.15 57.7603 219.15 52.6975V52.4717H214.908L214.927 52.7163Z" fill="#392C29"/>
<path d="M220.715 51.2671H241.87V42.3462H220.715V51.2671ZM237.685 45.621V47.9547H236.289V45.621H237.685ZM232.028 45.621V47.9735H230.633V45.621H232.028ZM226.372 45.621V47.9735H224.977V45.621H226.372Z" fill="#392C29"/>
<path d="M239.57 29.812H222.601V41.1044H239.57V29.812ZM226.824 33.8396V33.1056H235.309V33.8396H226.824ZM226.824 37.8484V37.1332H235.309V37.8484H226.824Z" fill="#392C29"/>
<path d="M236.761 61.882C238.09 60.9567 239.223 59.7801 240.098 58.419L240.852 57.2521L237.647 52.4341H220.678V56.6687H224.92C225.534 58.253 226.45 59.7038 227.616 60.941C226.052 61.1957 224.469 61.3153 222.884 61.2986H222.601L222.375 65.5332H223.449C226.289 65.5316 229.111 65.1001 231.821 64.2534C235.282 66.2009 239.163 67.2856 243.134 67.4152H243.341V63.1806H243.115C240.94 63.0956 238.794 62.657 236.761 61.882ZM235.366 56.6687L235.724 57.1957C234.774 58.1871 233.641 58.9859 232.387 59.5483C231.307 58.7635 230.38 57.7875 229.653 56.6687H235.366Z" fill="#392C29"/>
<path d="M262.856 45.7528L265.873 42.7792L260.933 37.7729L260.782 37.6035L257.746 40.5583L262.686 45.5834L262.856 45.7528Z" fill="#392C29"/>
<path d="M288.329 58.9461L288.141 59.0779C286.634 60.3139 284.933 61.2932 283.106 61.9763H282.578C279.505 61.9763 276.319 62.108 272.378 61.9763C271.005 62.0292 269.638 61.782 268.371 61.2521C267.104 60.7222 265.968 59.9224 265.043 58.9085V57.9863L268.192 59.8684L268.324 59.6613C270.691 55.3807 271.869 50.5465 271.737 45.6588H272.34L272.547 45.8847V47.3715C272.547 49.7617 272.415 53.0177 272.283 54.2975C272.057 56.5936 270.869 56.7818 270.53 56.7818H270.304V58.8897V60.9976H270.53C272.415 60.9976 276.186 59.8307 276.658 54.7115C276.79 53.3188 276.865 50.2699 276.941 47.5786V44.1908L274.226 41.4054H271.85V38.2623H276.054L277.751 39.5421V43.7391H282.277L281.334 44.9813H280.165V47.5033H277.016V51.7379H280.165V53.7329C280.165 56.9888 278.732 56.9888 277.978 57.0076H277.733V61.2423H277.978C281.994 61.2423 284.388 58.4003 284.388 53.714V51.719H288.593V47.5033H284.728L288.197 42.8734L285.746 39.5234H279.166C279.7 38.6735 280.161 37.7793 280.542 36.8508H286.708V32.6162H282.145C282.352 31.9763 282.541 31.3741 282.691 30.8283V30.6212C282.823 30.1883 282.937 29.8119 283.031 29.5484V29.3226L278.996 27.9863V28.2122C278.883 28.5698 278.732 29.0591 278.562 29.6425C278.166 30.9788 277.563 33.0491 276.828 34.8558V34.1595H273.509V28.3815H269.267V34.1595H266.853C265.741 32.6915 262.95 29.6237 262.932 29.5861L262.762 29.4167L259.632 32.2586L259.783 32.428C259.783 32.428 262.517 35.4581 263.554 36.719L263.686 36.9073L265.458 35.571V38.3941H267.494V44.3979C267.752 48.7238 266.902 53.0439 265.024 56.9512V50.778L262.026 47.7856H257.539V52.0202H260.311L260.82 52.5284V58.7956L256.804 62.8044L259.82 65.7969L262.875 62.7479C265.48 65.0317 268.836 66.2779 272.302 66.2485H275.772C278.355 66.2485 280.636 66.2486 282.861 66.1545H283.182C285.501 66.1545 289.196 63.5196 290.724 62.3903L290.912 62.2397L288.329 58.9461Z" fill="#392C29"/>
</g>
<defs>
<clipPath id="clip0_2946_9599">
<rect width="382" height="90" fill="white"/>
</clipPath>
</defs>
</svg>
