<svg width="400" height="388" viewBox="0 0 400 388" fill="none" xmlns="http://www.w3.org/2000/svg">
<g clip-path="url(#clip0_3014_10457)">
<path d="M97.2045 220.03L97.7851 221.306C96.1323 221.799 94.7415 222.924 93.9155 224.436C92.0967 227.876 93.2962 231.934 100.803 235.451C108.31 238.968 112.412 237.5 114.269 234.06C114.699 233.303 114.96 232.462 115.033 231.594C115.107 230.727 114.992 229.854 114.695 229.036L116.127 228.649C116.502 229.637 116.659 230.695 116.585 231.749C116.512 232.803 116.21 233.829 115.701 234.756C113.341 239.123 107.962 240.63 100.223 236.959C92.4837 233.287 90.4328 228.108 92.4837 223.895C92.9672 222.965 93.6348 222.143 94.4464 221.478C95.258 220.814 96.1964 220.321 97.2045 220.03Z" fill="#FFF9EE"/>
<path d="M99.7198 210.329C99.8684 210.388 100.001 210.479 100.109 210.597C100.217 210.714 100.296 210.855 100.341 211.008C100.386 211.161 100.395 211.322 100.368 211.479C100.341 211.636 100.278 211.785 100.184 211.914C100.104 212.057 99.9956 212.183 99.8662 212.284C99.7367 212.385 99.5884 212.459 99.43 212.502C99.2715 212.545 99.106 212.556 98.9432 212.535C98.7803 212.514 98.6234 212.46 98.4815 212.378C98.3398 212.306 98.2149 212.205 98.1151 212.082C98.0154 211.958 97.943 211.815 97.9028 211.662C97.8626 211.508 97.8554 211.348 97.8818 211.192C97.9082 211.035 97.9673 210.886 98.0556 210.755C98.1355 210.616 98.2425 210.495 98.37 210.398C98.4975 210.302 98.6429 210.231 98.7979 210.192C98.953 210.152 99.1144 210.144 99.2727 210.167C99.431 210.191 99.5831 210.246 99.7198 210.329ZM122.163 222.697L121.351 224.011L104.673 215.199L105.485 213.847L122.163 222.697Z" fill="#FFF9EE"/>
<path d="M130.406 208.319C130.54 209.518 130.238 210.726 129.554 211.721C129.259 212.216 128.862 212.643 128.388 212.974C127.915 213.304 127.377 213.53 126.809 213.636C126.242 213.742 125.658 213.726 125.097 213.589C124.536 213.452 124.011 213.197 123.556 212.841L111.948 206.117L110.477 208.358L109.278 207.662L110.748 205.421L106.878 203.14L107.575 201.749L111.677 204.107L114.076 200.474L115.159 201.324L112.876 204.802L124.485 211.489C126.188 212.455 127.619 212.339 128.355 210.909C128.844 210.136 129.086 209.233 129.051 208.319H130.406Z" fill="#FFF9EE"/>
<path d="M137.293 200.048C138.627 201.114 139.57 202.59 139.976 204.247C140.382 205.904 140.228 207.648 139.538 209.208L138.377 208.667C139.46 205.421 138.648 203.991 136.403 201.208L136.055 201.633L116.707 196.222L117.713 194.831L135.552 200.126L123.788 186.753L124.795 185.4L137.293 200.048Z" fill="#FFF9EE"/>
<path d="M159.814 172.221L147.122 169.709L146.735 170.173L144.104 173.188L152.965 180.067L151.843 181.343L132.495 166.308L135.668 162.675C139.538 158.424 142.866 158.114 146.116 160.665C146.749 161.049 147.299 161.555 147.733 162.153C148.168 162.751 148.479 163.43 148.649 164.149C148.818 164.869 148.842 165.615 148.719 166.344C148.597 167.073 148.33 167.77 147.935 168.395L161.053 170.946L159.814 172.221ZM144.994 161.979C142.363 159.931 139.886 160.047 136.752 163.603L134.74 165.921L142.982 172.337L145.188 169.786C147.858 166.772 147.857 164.221 144.994 161.979Z" fill="#FFF9EE"/>
<path d="M173.203 157.186L173.783 158.23C173.162 158.647 172.417 158.839 171.671 158.776C170.926 158.713 170.224 158.398 169.681 157.882C170.071 158.872 170.157 159.955 169.93 160.994C169.703 162.033 169.172 162.981 168.405 163.718C167.906 164.242 167.306 164.659 166.64 164.944C165.975 165.229 165.259 165.376 164.535 165.376C163.811 165.376 163.095 165.229 162.43 164.944C161.765 164.659 161.164 164.242 160.665 163.718C157.802 161.206 158.073 157.882 161.091 154.79L163.336 152.51L161.71 151.119C159.543 149.225 157.841 149.031 155.751 151.119C154.69 152.233 153.861 153.546 153.313 154.983L152.036 154.52C152.602 152.826 153.541 151.281 154.784 149.998C155.263 149.442 155.857 148.996 156.525 148.69C157.193 148.384 157.919 148.226 158.653 148.226C159.388 148.226 160.114 148.384 160.782 148.69C161.449 148.996 162.043 149.442 162.523 149.998L169.875 156.413C171.384 157.534 172.197 157.65 173.203 157.186ZM168.25 156.877L164.38 153.322L162.252 155.486C159.737 158.037 159.543 160.433 161.904 162.481C162.267 162.893 162.713 163.222 163.214 163.448C163.714 163.673 164.257 163.79 164.806 163.79C165.355 163.79 165.897 163.673 166.398 163.448C166.898 163.222 167.345 162.893 167.708 162.481C168.358 161.713 168.758 160.765 168.855 159.764C168.952 158.763 168.741 157.756 168.25 156.877Z" fill="#FFF9EE"/>
<path d="M185.16 129.166L194.602 138.674L193.363 139.756L184.077 130.364C182.026 128.277 180.207 127.968 178.814 129.205C178.106 130.045 177.653 131.07 177.509 132.159C177.365 133.248 177.536 134.355 178.001 135.35L187.521 144.935L186.321 146.017L177.034 136.664C174.944 134.577 173.164 134.268 171.694 135.505C170.223 136.741 170.185 139.06 170.881 141.65L180.4 151.274L179.201 152.317L166.122 139.138L167.166 138.21L169.566 140.452C169.214 139.413 169.154 138.298 169.393 137.228C169.632 136.159 170.16 135.175 170.92 134.384C171.731 133.715 172.75 133.349 173.803 133.349C174.855 133.349 175.874 133.715 176.685 134.384C176.306 133.33 176.232 132.191 176.472 131.097C176.711 130.003 177.255 128.999 178.04 128.2C180.052 126.306 182.761 126.77 185.16 129.166Z" fill="#FFF9EE"/>
<path d="M205.746 118.267C209.616 122.982 210.196 127.079 206.985 129.552C206.156 130.132 205.201 130.507 204.199 130.648C203.197 130.789 202.176 130.692 201.219 130.364L202.69 132.296L201.567 133.185L184.696 113.32L185.857 112.199L192.551 119.929C192.41 118.913 192.54 117.878 192.927 116.928C193.314 115.978 193.946 115.147 194.757 114.518C197.814 112.353 201.683 113.32 205.746 118.267ZM204.431 119.272C200.561 114.904 197.814 114.131 195.492 115.909C194.701 116.56 194.108 117.419 193.779 118.388C193.451 119.358 193.401 120.4 193.635 121.397L200.213 129.127C201.137 129.52 202.145 129.676 203.145 129.582C204.145 129.487 205.106 129.145 205.94 128.586C208.416 126.731 208.107 123.639 204.431 119.272Z" fill="#FFF9EE"/>
<path d="M216.581 118.808L202.496 100.295L203.734 99.2129L217.897 117.842C218.594 118.692 219.368 118.924 220.18 118.383C220.5 118.135 220.775 117.835 220.993 117.494L222.076 118.228C221.777 118.782 221.353 119.258 220.838 119.62C220.509 119.857 220.135 120.025 219.739 120.112C219.343 120.2 218.933 120.206 218.534 120.13C218.136 120.054 217.757 119.898 217.421 119.671C217.085 119.443 216.799 119.15 216.581 118.808Z" fill="#FFF9EE"/>
<path d="M233.453 101.145L223.624 107.174C226.836 111.503 229.931 112.044 232.524 110.46C233.945 109.583 234.982 108.203 235.426 106.595L236.664 106.981C236.178 108.921 234.957 110.598 233.259 111.658C229.389 113.938 225.288 112.624 221.844 107.561C218.4 102.498 218.671 98.1691 222.192 95.9661C225.713 93.7631 229.583 95.309 232.679 99.831L233.453 101.145ZM231.015 100.333C228.577 96.7391 225.83 95.425 223.005 97.1642C220.18 98.9034 219.948 101.454 223.005 106.131L231.518 100.913L231.015 100.333Z" fill="#FFF9EE"/>
<path d="M242.739 84.7192L243.204 86.072C242.723 86.2223 242.256 86.4163 241.811 86.6517C239.644 87.8112 239.45 90.0528 240.534 93.7245L246.454 103.657L245.023 104.392L235.658 88.6227L236.896 87.9658L239.025 91.3669C238.406 88.4296 239.025 86.4198 241.114 85.299C241.622 85.022 242.171 84.8264 242.739 84.7192Z" fill="#FFF9EE"/>
<path d="M73.7545 181.42C72.0165 184.604 69.3048 187.15 66.0153 188.686C61.2822 181.709 54.8683 176.034 47.3639 172.183L46.8995 171.989L43.7652 178.56L44.1908 178.753C47.9022 180.605 51.2978 183.032 54.2519 185.942C47.4414 183.468 39.1217 179.99 32.9691 177.323L36.8387 168.859L30.2603 165.728L26.0811 174.424C22.2115 172.685 18.3418 170.907 14.8979 169.322L14.4336 169.129L11.3767 175.738L11.8023 175.931C13.3888 176.666 17.5293 178.598 22.9467 180.995L18.6515 190.618L21.7472 200.01L32.7369 205.344L35.9098 206.889C37.9815 207.814 39.9971 208.86 41.9463 210.02C43.4394 210.907 44.8742 211.888 46.2418 212.957L43.0299 213.808H42.6043V214.271C42.6043 214.271 42.6043 214.774 42.6043 215.238L24.6106 206.658L26.1198 203.566L19.5415 200.435L18.0323 203.527L2.86353 196.261L-0.30957 202.831L14.8979 210.097L12.8084 214.426L19.3868 217.595L21.4763 213.228L42.4109 223.238C41.9704 225.851 41.1625 228.388 40.0115 230.775V231.2L46.5899 234.369V233.905C49.2864 228.413 50.4749 222.305 50.0339 216.204C52.3436 218.224 54.4087 220.507 56.1867 223.006L56.4573 223.393L62.5326 219.528L62.3004 219.141C60.1257 215.884 57.5227 212.933 54.5613 210.368C51.7493 207.805 48.6904 205.527 45.4291 203.566C43.1073 202.213 40.8242 201.169 38.6573 200.165L36.1807 199.005L36.645 198.077L38.1542 197.536L52.2396 204.261C52.6809 204.438 53.0973 204.672 53.4779 204.957C53.4553 206.063 53.2594 207.158 52.8974 208.204V208.667L59.9013 210.677V210.213C62.107 202.484 59.9014 199.817 55.374 197.73L39.1603 189.729L31.9242 192.241L30.1829 195.913L27.8612 194.831L26.6616 191.198L30.1441 183.932C40.4713 188.694 51.1428 192.674 62.0683 195.836C62.924 197.234 63.4734 198.797 63.6802 200.423C63.887 202.048 63.7464 203.699 63.2678 205.266L63.0744 205.691L69.6528 208.861V208.397C70.574 206.315 71.0498 204.064 71.0498 201.788C71.0498 199.512 70.574 197.261 69.6528 195.179C74.2536 192.852 78.0137 189.15 80.4101 184.589L80.6038 184.164L74.0254 180.995L73.7545 181.42Z" fill="#FFF9EE"/>
<path d="M20.9732 168.202C21.924 169.789 23.2534 171.117 24.8428 172.067L25.3071 172.26L28.4802 165.805L28.1321 165.574C27.6484 165.06 27.196 164.518 26.7776 163.95C25.7492 162.345 24.3404 161.017 22.6758 160.085L22.2502 159.892L19.0771 166.385L19.464 166.617C19.9935 167.12 20.4972 167.649 20.9732 168.202Z" fill="#FFF9EE"/>
<path d="M102.428 135.852L109.006 140.645L111.522 137.205C112.335 136.23 112.942 135.101 113.308 133.885C113.674 132.67 113.79 131.393 113.65 130.132C113.357 128.787 112.795 127.514 111.997 126.392C111.199 125.269 110.182 124.32 109.006 123.6L97.2043 114.556L86.6403 115.986L80.4101 124.141L73.9867 119.156L84.3959 105.551L77.8563 100.604L67.4858 114.209L59.7466 108.334L54.6387 114.788L62.3779 120.702L52.2783 133.881L58.7792 138.828L68.8401 125.61L75.2637 130.519L69.3044 138.248L70.7361 148.761L84.4734 159.235C84.6349 159.375 84.7665 159.546 84.8602 159.737C84.8602 159.931 84.8603 160.433 84.1637 161.206L83.8541 161.593L90.355 166.54L90.6259 166.153C91.5299 165.099 92.1979 163.864 92.585 162.531C92.9721 161.198 93.0693 159.797 92.8703 158.423C92.45 156.137 91.1605 154.101 89.2716 152.742L78.3593 144.239L77.8563 140.374L81.7259 135.311L106.84 154.443L111.754 147.949L86.6791 128.818L90.8581 123.33L94.7277 122.827L104.054 129.9L104.44 130.171C104.831 130.46 105.205 130.769 105.562 131.098C105.437 131.511 105.226 131.893 104.943 132.219L102.428 135.852Z" fill="#FFF9EE"/>
<path d="M112.954 71.6944H113.379C115.701 72.0809 117.907 72.4674 119.687 72.6606H120.19L120.886 65.3559H120.422C118.951 65.3559 116.939 64.8534 114.617 64.4669L109.742 63.6553H109.277L108.155 70.8827H108.658C110.129 71.1919 111.599 71.4625 112.954 71.6944Z" fill="#FFF9EE"/>
<path d="M116.88 79.9758L116.077 87.2363L129.192 88.6848L129.996 81.4243L116.88 79.9758Z" fill="#FFF9EE"/>
<path d="M135.629 91.0578L135.32 90.6714L129.593 95.2705L129.902 95.6185C133.772 100.411 133.772 110.537 132.611 111.928L132.959 112.238L132.611 112.547L136.868 117.88L137.254 117.571C139.886 115.484 141.124 110.923 140.544 105.049C140.218 100.024 138.518 95.1845 135.629 91.0578Z" fill="#FFF9EE"/>
<path d="M128.161 77.6852L136.287 87.7727L164.225 65.3174L154.667 53.4521L126.729 75.8687L128.161 77.6852ZM138.338 78.7287L135.977 75.7527L137.68 74.4L140.04 77.3374L138.338 78.7287ZM143.368 69.8007L145.071 68.4481L147.47 71.3853L145.767 72.7768L143.368 69.8007ZM153.158 66.8248L150.798 63.8874L152.5 62.4961L154.861 65.472L153.158 66.8248Z" fill="#FFF9EE"/>
<path d="M150.218 54.418L145.961 49.0844L141.705 43.7508L138.145 39.3447L115.701 57.3167L127.774 72.3512L150.218 54.418ZM135.9 48.4273L136.558 49.239L125.53 58.0896L124.872 57.278L135.9 48.4273ZM129.786 63.346L129.129 62.5343L140.157 53.7223L140.776 54.534L129.786 63.346Z" fill="#FFF9EE"/>
<path d="M178.156 79.4629C175.231 81.6581 171.962 83.3558 168.482 84.4874C169.245 81.9066 169.482 79.1994 169.179 76.5256L168.947 74.168L159.544 71.1533L137.139 89.1252L141.705 94.8067L147.316 90.3233C149.708 91.6985 152.33 92.6284 155.055 93.0675C153.302 94.9933 151.385 96.7648 149.328 98.3624L148.941 98.6716L153.236 104.585L153.623 104.314L154.707 103.464C158.439 100.462 161.7 96.9186 164.381 92.9516C170.969 91.8444 177.201 89.1956 182.568 85.2217L182.955 84.9125L178.466 79.1537L178.156 79.4629ZM161.943 79.4629C161.775 81.7192 161.143 83.9166 160.085 85.9174C157.925 85.9872 155.767 85.6999 153.7 85.0671L161.053 79.1537L161.943 79.4629Z" fill="#FFF9EE"/>
<path d="M183.67 29.1291L181.512 35.9463L193.097 39.6057L195.255 32.7885L183.67 29.1291Z" fill="#FFF9EE"/>
<path d="M240.379 38.9971L240.147 39.4223C238.891 42.3426 237.194 45.0536 235.117 47.4613L234.343 47.8865C229.931 50.3601 225.327 52.8722 219.561 55.8096C217.614 56.9104 215.455 57.5863 213.227 57.7929C210.999 57.9994 208.753 57.7318 206.637 57.0077L206.017 55.8482L212.054 56.2733V55.7709C212.201 47.7508 210.197 39.8374 206.249 32.8519L207.023 32.4268H207.372L208.533 34.7071C210.351 38.572 212.673 42.9781 213.408 44.8719C214.84 48.3116 213.408 49.4711 212.828 49.703L212.402 49.9349L214.027 53.1427L215.537 56.3507L216.272 56.0029C218.598 54.6577 220.305 52.4572 221.028 49.8717C221.751 47.2862 221.433 44.5207 220.141 42.1664C219.29 40.0407 217.007 35.5187 214.956 31.4219L212.557 26.552L206.404 24.581L202.999 26.3588L200.638 21.9528L206.637 18.7836L210.003 19.3246L213.176 25.3153L219.677 21.8755L219.329 24.1558L217.587 25.0835L219.483 28.7164L214.917 31.1513L218.284 37.4898L222.85 35.0549L224.359 37.8764C226.836 42.5143 224.824 43.5963 223.74 44.1761L223.314 44.4081L226.72 50.7465L227.145 50.5146C232.988 47.3454 234.343 41.3933 230.705 34.5138L229.196 31.6924L235.349 28.4459L231.982 22.1074L226.449 25.0448L227.919 15.769L221.418 12.8316L212.054 17.7787C212.169 16.209 212.169 14.6331 212.054 13.0635L220.915 8.38694L217.549 2.04841L210.932 5.5655C210.932 4.52197 210.545 3.51709 210.351 2.66681V2.35767C210.351 1.58468 210.042 0.966251 209.964 0.502459V0L202.883 1.19812V1.70058C202.883 2.24167 203.154 2.97607 203.309 3.82636V4.09681C203.734 6.22252 204.392 9.46915 204.74 12.5224L204.392 11.8654L199.71 14.339L195.26 5.95202L188.914 9.2758L193.364 17.7014L189.997 19.4793C187.25 18.2038 180.865 15.8849 180.787 15.8849H180.323L177.885 22.6098H178.35C178.35 22.6098 184.657 24.8902 187.056 26.011H187.482L188.991 22.7645L191.119 26.6294L194.06 25.0835L198.665 33.7409C202.29 39.7254 204.389 46.5069 204.779 53.4906L200.135 44.7945L193.402 42.7075L186.747 46.2246L190.113 52.563L193.983 50.4374L195.028 50.7465L199.826 59.7904L197.079 68.7571L203.967 70.8442L206.017 64.0419C211.585 65.334 217.433 64.5505 222.463 61.8388C224.282 60.9499 225.984 60.061 227.571 59.2107L237.632 53.7225L238.251 53.3746C241.789 50.3166 244.548 46.4614 246.3 42.1277V41.7026L240.379 38.9971Z" fill="#FFF9EE"/>
<path d="M289.407 250.37L292.038 254.467L297.495 250.331L285.383 232.785L279.811 235.413L279.888 235.451L289.407 250.37Z" fill="#FFF9EE"/>
<path d="M279.346 222.427C279.212 221.776 279.212 221.106 279.346 220.455C279.604 219.636 280.05 218.888 280.647 218.271C281.245 217.654 281.979 217.184 282.79 216.9L316.61 204.687L322.686 194.483L307.207 185.71C306.709 185.419 306.344 184.944 306.192 184.387C306.04 183.831 306.113 183.237 306.394 182.734C306.686 182.236 307.161 181.872 307.718 181.72C308.275 181.568 308.87 181.641 309.374 181.922L336.461 197.382L347.335 193.517C347.879 193.329 348.475 193.362 348.996 193.607C349.516 193.853 349.92 194.292 350.121 194.831C350.225 195.099 350.273 195.386 350.262 195.674C350.252 195.961 350.183 196.244 350.06 196.504C349.937 196.764 349.762 196.996 349.546 197.187C349.331 197.378 349.079 197.523 348.805 197.614L312.818 210.638L284.067 221.035C283.877 221.098 283.705 221.204 283.564 221.344C283.423 221.485 283.317 221.657 283.254 221.847C283.187 222.034 283.17 222.236 283.204 222.432C283.238 222.629 283.322 222.813 283.448 222.968L288.865 230.697L300.474 247.742L311.231 263.201C311.321 263.34 311.438 263.46 311.575 263.553C311.712 263.646 311.866 263.71 312.029 263.743C312.191 263.775 312.358 263.775 312.52 263.742C312.682 263.708 312.836 263.643 312.973 263.549L393.809 212.957C394.731 212.372 395.425 211.49 395.777 210.457C396.128 209.424 396.117 208.302 395.744 207.276L381.039 168.163L316.378 110.885C315.462 110.065 314.262 109.635 313.034 109.686C311.805 109.736 310.645 110.263 309.8 111.155L238.87 184.589L225.21 198.773L279.346 222.427Z" fill="#FFF9EE"/>
<path d="M371.326 310.431C371.539 309.647 371.544 308.822 371.34 308.036C371.137 307.249 370.732 306.53 370.165 305.948L326.323 260.844L315.836 267.414C314.942 267.969 313.91 268.264 312.856 268.264C311.942 268.267 311.042 268.047 310.232 267.622C309.423 267.198 308.73 266.582 308.213 265.83L300.048 254.003L294.553 258.254L298.113 263.781C298.417 264.274 298.514 264.867 298.384 265.431C298.254 265.995 297.906 266.486 297.417 266.796C297.072 267.022 296.668 267.142 296.256 267.144C295.888 267.141 295.525 267.048 295.201 266.873C294.877 266.698 294.602 266.446 294.399 266.139L287.046 254.544L272.497 231.78C271.966 232.104 271.336 232.224 270.723 232.118C270.11 232.011 269.558 231.685 269.169 231.2C268.796 230.753 268.616 230.177 268.666 229.598C268.717 229.019 268.995 228.483 269.44 228.108C269.961 227.738 270.553 227.478 271.178 227.345C271.804 227.212 272.45 227.209 273.077 227.335C273.708 227.454 274.308 227.701 274.84 228.06C275.373 228.419 275.826 228.882 276.173 229.422L277.643 231.741L282.944 229.267L282.519 228.688L262.552 219.953L222.617 202.213L151.649 275.84C151.121 276.377 150.73 277.033 150.507 277.752C150.285 278.472 150.239 279.234 150.372 279.975C150.5 280.713 150.802 281.41 151.252 282.008C151.703 282.606 152.29 283.088 152.965 283.415L239.218 325.891C240.293 326.402 241.519 326.499 242.661 326.164C243.804 325.829 244.782 325.085 245.409 324.074L261.623 297.02L240.766 253.887C240.635 253.632 240.558 253.353 240.538 253.067C240.518 252.781 240.556 252.494 240.65 252.223C240.744 251.953 240.892 251.704 241.085 251.491C241.277 251.279 241.511 251.108 241.772 250.988C242.27 250.794 242.822 250.794 243.32 250.988C243.762 251.191 244.129 251.529 244.365 251.954L263.945 292.498L284.105 334.2C284.561 335.264 285.392 336.124 286.441 336.616C287.49 337.108 288.683 337.197 289.794 336.867L368.076 313.793C368.865 313.567 369.581 313.137 370.152 312.547C370.722 311.957 371.127 311.227 371.326 310.431Z" fill="#FFF9EE"/>
<path d="M396.324 339.92C391.403 334.687 385.411 330.574 378.756 327.862C378.214 327.622 377.627 327.498 377.034 327.498C376.441 327.498 375.854 327.622 375.312 327.862L343.156 340.886L340.563 341.969L336.887 343.476C335.986 343.849 335.227 344.499 334.72 345.331L329.844 353.757C329.58 354.164 329.204 354.486 328.761 354.684C323.963 356.578 312.044 367.091 307.865 370.994C307.71 371.145 307.525 371.263 307.323 371.342C307.323 371.342 297.495 376.134 298.423 383.478C299.004 387.343 311.386 388.464 320.325 387.806C343.31 378.337 387.811 359.593 393.615 355.689C397.485 353.099 399.458 350.819 399.845 348.539C399.853 345.315 398.587 342.218 396.324 339.92Z" fill="#FFF9EE"/>
<path d="M179.433 312.054L204.237 325.156L208.532 315.648L185.005 304.131L179.433 312.054Z" fill="#FFF9EE"/>
<path d="M205.553 330.838L205.011 330.567L170.185 312.209C169.259 311.755 168.198 311.658 167.205 311.939L158.46 314.528C158.197 314.64 157.914 314.697 157.628 314.697C157.342 314.697 157.059 314.64 156.796 314.528C148.472 310.924 139.476 309.132 130.405 309.272C124.059 309.272 118.796 310.238 117.171 312.518C115.546 314.799 117.945 317.581 122.589 321.717C145.806 342.008 184.696 356.501 193.131 358.897C194.447 359.486 195.866 359.81 197.307 359.849C198.748 359.889 200.182 359.644 201.528 359.129C202.623 358.226 203.528 357.115 204.192 355.862C204.856 354.608 205.266 353.236 205.398 351.824C206.714 345.872 207.604 338.761 208.029 335.051C208.165 334.171 207.993 333.271 207.542 332.504C207.091 331.736 206.388 331.148 205.553 330.838Z" fill="#FFF9EE"/>
<path d="M338.822 337.911L366.257 326.78L361.459 320.248L334.604 328.171L338.822 337.911Z" fill="#FFF9EE"/>
</g>
<defs>
<clipPath id="clip0_3014_10457">
<rect width="400" height="388" fill="white"/>
</clipPath>
</defs>
</svg>
