<svg width="16" height="883" viewBox="0 0 16 883" fill="none" xmlns="http://www.w3.org/2000/svg">
<path d="M9 10L13.7735 2.52368e-07L2.2265 -2.52368e-07L7 10L9 10ZM7.29285 882.707C7.68338 883.098 8.31654 883.098 8.70707 882.707L15.071 876.343C15.4616 875.953 15.4616 875.319 15.071 874.929C14.6805 874.538 14.0473 874.538 13.6568 874.929L7.99996 880.586L2.34311 874.929C1.95258 874.538 1.31942 874.538 0.928894 874.929C0.53837 875.319 0.53837 875.953 0.928894 876.343L7.29285 882.707ZM7 9L6.99996 882L8.99996 882L9 9L7 9Z" fill="#392C29"/>
</svg>
